<svg width="48" height="48" viewBox="0 0 48 48" fill="none" xmlns="http://www.w3.org/2000/svg">
<path d="M24 4.00016C18.6957 4.00016 13.6089 6.10729 9.85784 9.85801C6.1072 13.609 4 18.6965 4 24.0002C4 29.3039 6.10712 34.3913 9.85784 38.1424C13.6088 41.893 18.6963 44.0002 24 44.0002C29.3037 44.0002 34.3911 41.8931 38.1422 38.1424C41.8928 34.3914 44 29.3039 44 24.0002C44 20.4893 43.0759 17.0406 41.3205 14.0001C39.565 10.9596 37.0404 8.43498 33.9999 6.67954C30.9594 4.92409 27.5107 4 23.9998 4L24 4.00016ZM24 41.1434C19.4534 41.1434 15.093 39.3372 11.8783 36.1223C8.6633 32.9073 6.85717 28.5469 6.85717 24.0005C6.85717 19.4541 8.6633 15.0935 11.8783 11.8788C15.0932 8.6638 19.4536 6.85766 24 6.85766C28.5464 6.85766 32.907 8.6638 36.1217 11.8788C39.3367 15.0937 41.1428 19.4541 41.1428 24.0005C41.1428 28.5469 39.3367 32.9075 36.1217 36.1223C32.9068 39.3372 28.5464 41.1434 24 41.1434ZM22.8001 13.286C21.6859 15.0003 16.1428 23.7293 16.1428 27.5718C16.1428 30.3789 17.6403 32.9727 20.0714 34.3764C22.5025 35.7797 25.4975 35.7797 27.9286 34.3764C30.3597 32.9727 31.8572 30.3789 31.8572 27.5718C31.8572 23.8004 26.3145 15.0721 25.1999 13.3578C24.9493 12.9423 24.5045 12.6824 24.0194 12.6681C23.5344 12.6537 23.0749 12.8865 22.8 13.2864L22.8001 13.286ZM24 32.5719C22.6738 32.5719 21.4021 32.0451 20.4645 31.1073C19.5267 30.1698 19 28.8981 19 27.5718C19 25.6576 21.7143 20.5717 24 16.8289C26.2857 20.5719 29 25.6575 29 27.5718C29 28.898 28.4733 30.1697 27.5355 31.1073C26.598 32.0451 25.3263 32.5719 24 32.5719Z" fill="white" stroke="white"/>
</svg>
