<svg width="169" height="158" viewBox="0 0 169 158" fill="none" xmlns="http://www.w3.org/2000/svg">
	<path d="M94.8089 155.954C43.6948 153.093 -33.8322 142.578 17.2658 104.258C66.2859 67.4962 84.973 65.0953 109.91 70.5226C137.769 76.5856 161.823 98.6889 157.269 127C153.273 151.842 119.853 157.356 94.8089 155.954Z" fill="url(#paint0_linear_1157_435)" fill-opacity="0.3" />
	<path d="M146.913 46.1402V0L159.625 0V46.1402H168.269L153.269 60.5L138.269 46.1402H146.913Z" fill="url(#paint1_linear_1157_435)" fill-opacity="0.8" />
	<path d="M22.6619 120.593L118.227 127.728C119.48 127.66 120.508 127.659 121.405 126.918C122.074 126.306 122.309 125.834 122.309 124.738L115.635 61.6388C115.061 60.6888 114.556 60.3298 113.34 59.9787C75.9785 57.0609 55.0099 55.8284 17.5315 55.0768C16.2666 55.732 15.9477 56.2377 16.2484 57.4514L22.6619 120.593Z" fill="#072E0B" stroke="#55D34A" stroke-width="0.656655" />
	<path d="M18.4418 56.4419L113.428 62.5726L114.436 71.251C104.478 72.6844 103.877 73.5432 99.1582 76.2571L23.9706 70.7226L23.9566 70.6975C23.0079 69.002 22.4717 68.0437 19.5556 66.0339L18.4418 56.4419Z" fill="url(#paint2_linear_1157_435)" />
	<ellipse rx="10.4295" ry="10.821" transform="matrix(0.989284 -0.146003 0.114851 0.993383 62.6709 48.8416)" fill="url(#paint3_linear_1157_435)" />
	<ellipse rx="8.77181" ry="8.95529" transform="matrix(0.989284 -0.146003 0.114851 0.993383 62.6563 48.718)" fill="#1C3D1C" />
	<path d="M65.6843 43.4821L62.6967 46.2486L60.0427 43.4919C59.4087 42.9474 58.6997 42.9948 58.1089 43.621C57.5315 44.393 57.5074 44.8347 57.8835 45.3963L60.4797 48.2302L57.7768 51.2712C57.5459 51.58 57.5318 51.837 57.6001 52.1631C57.6747 52.5274 57.7113 52.6691 57.9381 53.0207C58.4816 53.7509 59.1148 53.8223 59.6612 53.4191L62.5065 50.5154C62.5065 50.5154 64.6819 53.0107 65.1874 53.5637C65.6929 54.1167 66.4607 53.9438 66.9923 53.4432C67.5326 52.9344 67.7397 51.9363 67.3909 51.4363C67.042 50.9363 64.71 48.388 64.71 48.388L67.4264 45.4929C67.7666 44.9567 67.8422 44.3649 67.3367 43.8119C66.7475 43.0444 66.2246 43.1292 65.6843 43.4821Z" fill="url(#paint4_linear_1157_435)" stroke="url(#paint5_linear_1157_435)" stroke-width="0.656655" />
	<ellipse rx="9.20247" ry="9.73888" transform="matrix(0.989284 -0.146003 0.114851 0.993383 42.3147 25.8236)" fill="url(#paint6_linear_1157_435)" />
	<ellipse rx="7.73983" ry="8.05976" transform="matrix(0.989284 -0.146003 0.114851 0.993383 42.3017 25.7124)" fill="#1C3D1C" />
	<path d="M44.9638 21.0096L42.3322 23.491L39.9842 21.0039C39.4235 20.5125 38.7978 20.5532 38.2776 21.1151C37.7695 21.8082 37.7491 22.2055 38.0822 22.7118L40.3794 25.2682L37.9998 27.9972C37.7966 28.2744 37.7847 28.5056 37.8456 28.7992C37.9122 29.1272 37.9448 29.2548 38.1457 29.5717C38.6269 30.2301 39.1859 30.2959 39.6674 29.9345L42.173 27.3293C42.173 27.3293 44.0981 29.5799 44.5453 30.0788C44.9926 30.5776 45.67 30.424 46.1382 29.975C46.6141 29.5186 46.7949 28.6211 46.486 28.1704C46.1771 27.7196 44.1136 25.4209 44.1136 25.4209L46.5054 22.8231C46.8046 22.3416 46.8702 21.8094 46.4229 21.3105C45.9013 20.6185 45.4399 20.6934 44.9638 21.0096Z" fill="url(#paint7_linear_1157_435)" stroke="url(#paint8_linear_1157_435)" stroke-width="0.656655" />
	<ellipse rx="9.86927" ry="11.2601" transform="matrix(0.989284 -0.146003 0.114851 0.993383 55.2113 63.9405)" fill="url(#paint9_linear_1157_435)" />
	<ellipse rx="8.30064" ry="9.31869" transform="matrix(0.989284 -0.146003 0.114851 0.993383 55.1964 63.8117)" fill="#1C3D1C" />
	<path d="M58.0102 58.4139L55.2079 61.2474L52.6627 58.3469C52.056 57.7725 51.3844 57.812 50.8311 58.4545C50.2921 59.2487 50.274 59.7073 50.6365 60.296L53.1278 63.276L50.5983 66.3985C50.3828 66.7162 50.3723 66.9831 50.4404 67.3228C50.5151 67.7023 50.5513 67.8501 50.7701 68.2185C51.293 68.9846 51.894 69.0675 52.4075 68.656L55.0734 65.678C55.0734 65.678 57.1621 68.3003 57.6472 68.8819C58.1323 69.4634 58.8582 69.2942 59.3567 68.7814C59.8634 68.2601 60.049 67.2259 59.713 66.7016C59.377 66.1774 57.1392 63.4977 57.1392 63.4977L59.683 60.5269C59.9997 59.9745 60.065 59.3606 59.5799 58.7791C59.0133 57.9737 58.5185 58.0546 58.0102 58.4139Z" fill="url(#paint10_linear_1157_435)" stroke="url(#paint11_linear_1157_435)" stroke-width="0.656655" />
	<ellipse rx="11.2475" ry="12.6116" transform="matrix(0.989284 -0.146003 0.114851 0.993383 74.5332 62.4543)" fill="url(#paint12_linear_1157_435)" />
	<ellipse rx="9.45979" ry="10.4372" transform="matrix(0.989284 -0.146003 0.114851 0.993383 74.5164 62.3107)" fill="#1C3D1C" />
	<path d="M77.7344 56.2542L74.5354 59.4367L71.6421 56.1944C70.9521 55.5526 70.1869 55.5987 69.5551 56.3202C68.9392 57.2115 68.9176 57.7253 69.3293 58.3839L72.161 61.7154L69.2722 65.2209C69.0259 65.5775 69.0133 65.8765 69.0902 66.2569C69.1744 66.6819 69.2153 66.8473 69.4637 67.2595C70.0579 68.1163 70.7423 68.2074 71.3284 67.745L74.3723 64.4009C74.3723 64.4009 76.7461 67.333 77.2975 67.9831C77.8489 68.6332 78.6763 68.4416 79.2454 67.8657C79.8238 67.2802 80.0376 66.121 79.656 65.5346C79.2743 64.9482 76.7308 61.9524 76.7308 61.9524L79.6355 58.6168C79.9976 57.997 80.0734 57.3091 79.522 56.6589C78.8782 55.7581 78.3143 55.8502 77.7344 56.2542Z" fill="url(#paint13_linear_1157_435)" stroke="url(#paint14_linear_1157_435)" stroke-width="0.656655" />
	<path d="M16.4635 57.8502C43.2575 61.5235 57.7198 65.8835 84.1655 72.1819C85.5353 72.6336 85.9202 73.2033 86.2344 74.5273L92.9542 135.934C93.0038 137.976 92.0443 138.627 90.3172 139.277C89.5496 139.585 88.3982 139.277 87.4774 139.152L24.151 125.399C23.3086 124.871 22.9316 124.521 22.7439 123.619L16.4635 57.8502Z" fill="#1D1B1B" stroke="#55D34A" stroke-width="0.656655" />
	<path d="M55.5423 91.5741C55.625 90.0019 57.218 88.9861 59.2435 89.2705C66.7845 90.3293 74.6882 91.766 78.1976 93.4443C78.8041 93.7465 79.3798 94.3969 79.5717 94.8306C79.7636 95.2642 80.4283 105.501 80.4283 105.501C80.6455 107.379 77.3764 108.845 76.0131 108.492L57.8315 104.514C57.2436 104.371 57.0387 104.198 56.9423 103.686L55.5423 91.5741Z" fill="#1D1B1B" stroke="#55D34A" stroke-width="0.656655" />
	<path d="M63.8585 99.1736C64.1439 101.643 66.1301 103.307 68.2264 102.985C70.3228 102.664 71.8617 100.459 71.5763 97.9897C71.2909 95.5205 69.3047 93.8565 67.2084 94.1781C65.1121 94.4996 63.5731 96.7044 63.8585 99.1736Z" fill="#1D1B1B" stroke="#55D34A" stroke-width="0.656655" />
	<defs>
		<linearGradient id="paint0_linear_1157_435" x1="154.598" y1="86.7261" x2="8.06968" y2="111.397" gradientUnits="userSpaceOnUse">
			<stop stop-color="#162218" stop-opacity="0" />
			<stop offset="1" stop-color="#3B783B" />
		</linearGradient>
		<linearGradient id="paint1_linear_1157_435" x1="153.015" y1="63.5921" x2="137.635" y2="33.1593" gradientUnits="userSpaceOnUse">
			<stop stop-color="#3B783B" />
			<stop offset="1" stop-color="#162218" stop-opacity="0.49" />
		</linearGradient>
		<linearGradient id="paint2_linear_1157_435" x1="64.7814" y1="49.5726" x2="69.3911" y2="80.6696" gradientUnits="userSpaceOnUse">
			<stop stop-color="#337C21" />
			<stop offset="1" stop-color="#72EF60" />
		</linearGradient>
		<linearGradient id="paint3_linear_1157_435" x1="34.6037" y1="27.1511" x2="-4.53237" y2="-2.19123" gradientUnits="userSpaceOnUse">
			<stop stop-color="#18551F" stop-opacity="0.43" />
			<stop offset="0.678397" stop-color="#63B56D" />
			<stop offset="0.855169" stop-color="#D5F0C3" stop-opacity="0.73" />
		</linearGradient>
		<linearGradient id="paint4_linear_1157_435" x1="75.8806" y1="56.1098" x2="54.1627" y2="42.5603" gradientUnits="userSpaceOnUse">
			<stop stop-color="#18551F" stop-opacity="0.43" />
			<stop offset="0.678397" stop-color="#63B56D" />
			<stop offset="0.855169" stop-color="#D5F0C3" stop-opacity="0.73" />
		</linearGradient>
		<linearGradient id="paint5_linear_1157_435" x1="75.8806" y1="56.1098" x2="54.1627" y2="42.5603" gradientUnits="userSpaceOnUse">
			<stop stop-color="#18551F" stop-opacity="0.43" />
			<stop offset="0.678397" stop-color="#63B56D" />
			<stop offset="0.855169" stop-color="#D5F0C3" stop-opacity="0.73" />
		</linearGradient>
		<linearGradient id="paint6_linear_1157_435" x1="30.5327" y1="24.436" x2="-4.48852" y2="-1.30635" gradientUnits="userSpaceOnUse">
			<stop stop-color="#18551F" stop-opacity="0.43" />
			<stop offset="0.678397" stop-color="#63B56D" />
			<stop offset="0.855169" stop-color="#D5F0C3" stop-opacity="0.73" />
		</linearGradient>
		<linearGradient id="paint7_linear_1157_435" x1="53.9888" y1="32.3969" x2="34.5615" y2="20.5285" gradientUnits="userSpaceOnUse">
			<stop stop-color="#18551F" stop-opacity="0.43" />
			<stop offset="0.678397" stop-color="#63B56D" />
			<stop offset="0.855169" stop-color="#D5F0C3" stop-opacity="0.73" />
		</linearGradient>
		<linearGradient id="paint8_linear_1157_435" x1="53.9888" y1="32.3969" x2="34.5615" y2="20.5285" gradientUnits="userSpaceOnUse">
			<stop stop-color="#18551F" stop-opacity="0.43" />
			<stop offset="0.678397" stop-color="#63B56D" />
			<stop offset="0.855169" stop-color="#D5F0C3" stop-opacity="0.73" />
		</linearGradient>
		<linearGradient id="paint9_linear_1157_435" x1="32.7451" y1="28.2529" x2="-6.74777" y2="1.32619" gradientUnits="userSpaceOnUse">
			<stop stop-color="#18551F" stop-opacity="0.43" />
			<stop offset="0.678397" stop-color="#63B56D" />
			<stop offset="0.855169" stop-color="#D5F0C3" stop-opacity="0.73" />
		</linearGradient>
		<linearGradient id="paint10_linear_1157_435" x1="67.8103" y1="71.6736" x2="45.9273" y2="59.343" gradientUnits="userSpaceOnUse">
			<stop stop-color="#18551F" stop-opacity="0.43" />
			<stop offset="0.678397" stop-color="#63B56D" />
			<stop offset="0.855169" stop-color="#D5F0C3" stop-opacity="0.73" />
		</linearGradient>
		<linearGradient id="paint11_linear_1157_435" x1="67.8103" y1="71.6736" x2="45.9273" y2="59.343" gradientUnits="userSpaceOnUse">
			<stop stop-color="#18551F" stop-opacity="0.43" />
			<stop offset="0.678397" stop-color="#63B56D" />
			<stop offset="0.855169" stop-color="#D5F0C3" stop-opacity="0.73" />
		</linearGradient>
		<linearGradient id="paint12_linear_1157_435" x1="37.3178" y1="31.644" x2="-7.1909" y2="0.765861" gradientUnits="userSpaceOnUse">
			<stop stop-color="#18551F" stop-opacity="0.43" />
			<stop offset="0.678397" stop-color="#63B56D" />
			<stop offset="0.855169" stop-color="#D5F0C3" stop-opacity="0.73" />
		</linearGradient>
		<linearGradient id="paint13_linear_1157_435" x1="88.8702" y1="71.0819" x2="64.2024" y2="56.918" gradientUnits="userSpaceOnUse">
			<stop stop-color="#18551F" stop-opacity="0.43" />
			<stop offset="0.678397" stop-color="#63B56D" />
			<stop offset="0.855169" stop-color="#D5F0C3" stop-opacity="0.73" />
		</linearGradient>
		<linearGradient id="paint14_linear_1157_435" x1="88.8702" y1="71.0819" x2="64.2024" y2="56.918" gradientUnits="userSpaceOnUse">
			<stop stop-color="#18551F" stop-opacity="0.43" />
			<stop offset="0.678397" stop-color="#63B56D" />
			<stop offset="0.855169" stop-color="#D5F0C3" stop-opacity="0.73" />
		</linearGradient>
	</defs>
</svg>
	