<svg width="252" height="261" viewBox="0 0 252 261" fill="none" xmlns="http://www.w3.org/2000/svg">
	<circle cx="101" cy="161" r="100" fill="#ABFAB6" />
	<path d="M193.496 161C193.496 212.086 152.082 253.5 100.996 253.5C49.9098 253.5 8.49609 212.086 8.49609 161C8.49609 109.913 49.9098 68.4998 100.996 68.4998C152.082 68.4998 193.496 109.913 193.496 161Z" fill="#151517" stroke="#246E24" stroke-width="7" />
	<path d="M114.217 146.441L39.1613 229.231L42.7293 232.914L118.128 151.841C121.93 147.238 121.074 142.95 116.761 144.994C115.524 145.535 115.063 145.836 114.217 146.441Z" fill="url(#paint0_linear_1157_458)" fill-opacity="0.4" />
	<path d="M125.842 165.094L50.7863 247.885L54.3543 251.567L129.753 170.494C133.555 165.891 132.699 161.603 128.386 163.647C127.149 164.188 126.688 164.489 125.842 165.094Z" fill="url(#paint1_linear_1157_458)" fill-opacity="0.4" />
	<path d="M138.32 183.382L74.0067 253.39L77.0456 256.481L141.648 187.92C144.906 184.029 144.185 180.418 140.496 182.154C139.439 182.614 139.044 182.869 138.32 183.382Z" fill="url(#paint2_linear_1157_458)" fill-opacity="0.4" />
	<path d="M123.819 176.134L102.739 192.358L138.386 239.943C138.812 240.508 139.441 240.88 140.137 240.976C140.832 241.071 141.536 240.884 142.095 240.453L158.955 227.465C159.512 227.033 159.879 226.396 159.974 225.691C160.07 224.986 159.887 224.272 159.466 223.703L123.819 176.134Z" fill="url(#paint3_linear_1157_458)" />
	<path d="M104.395 150.187L83.3373 166.441L103.198 192.951L124.227 176.697L104.395 150.187Z" fill="url(#paint4_radial_1157_458)" />
	<path d="M104.395 150.187L83.3373 166.441L103.198 192.951L124.227 176.697L104.395 150.187Z" fill="#ABFAB6" />
	<g opacity="0.8">
		<path opacity="0.8" d="M117.986 118.82C117.166 130.537 112.938 141.745 105.837 151.025C98.7362 160.306 89.0812 167.242 78.093 170.958C67.1047 174.674 55.2768 175.002 44.1047 171.901C32.9327 168.8 22.9182 162.409 15.3278 153.535C7.73731 144.662 2.91169 133.706 1.46112 122.051C0.0105419 110.397 2.00016 98.5681 7.17838 88.0604C12.3566 77.5528 20.4909 68.8383 30.5526 63.0188C40.6143 57.1994 52.1517 54.5364 63.7057 55.3666C71.3783 55.9178 78.8687 57.9965 85.7491 61.4838C92.6295 64.9711 98.7651 69.7987 103.806 75.691C108.846 81.5833 112.693 88.4248 115.126 95.8248C117.559 103.225 118.531 111.039 117.986 118.82Z" stroke="black" stroke-width="2" />
	</g>
	<path d="M57.1774 175.364C68.8757 176.204 80.557 173.507 90.7441 167.615C100.931 161.722 109.167 152.898 114.409 142.259C119.651 131.62 121.665 119.644 120.196 107.844C118.726 96.044 113.84 84.9511 106.154 75.9677C98.4681 66.9844 88.3282 60.5141 77.0165 57.375C65.7047 54.2359 53.7291 54.5691 42.604 58.3323C31.4789 62.0955 21.704 69.1198 14.5153 78.5169C7.32666 87.9141 3.04706 99.262 2.21773 111.126C1.66704 119.003 2.65181 126.914 5.1158 134.406C7.5798 141.898 11.4748 148.824 16.5783 154.789C21.6818 160.754 27.894 165.641 34.86 169.171C41.826 172.702 49.4095 174.806 57.1774 175.364V175.364Z" fill="url(#paint5_radial_1157_458)" fill-opacity="0.15" />
	<path d="M57.1774 175.364C68.8757 176.204 80.557 173.507 90.7441 167.615C100.931 161.722 109.167 152.898 114.409 142.259C119.651 131.62 121.665 119.644 120.196 107.844C118.726 96.044 113.84 84.9511 106.154 75.9677C98.4681 66.9844 88.3282 60.5141 77.0165 57.375C65.7047 54.2359 53.7291 54.5691 42.604 58.3323C31.4789 62.0955 21.704 69.1198 14.5153 78.5169C7.32666 87.9141 3.04706 99.262 2.21773 111.126C1.66704 119.003 2.65181 126.914 5.1158 134.406C7.5798 141.898 11.4748 148.824 16.5783 154.789C21.6818 160.754 27.894 165.641 34.86 169.171C41.826 172.702 49.4095 174.806 57.1774 175.364Z" fill="#142017" />
	<path d="M117.965 119.441C117.173 130.795 113.078 141.655 106.199 150.649C99.3203 159.642 89.9659 166.365 79.3193 169.966C68.6726 173.568 57.2119 173.886 46.3867 170.882C35.5616 167.877 25.8582 161.684 18.5038 153.086C11.1494 144.488 6.47446 133.872 5.07017 122.579C3.66587 111.287 5.59533 99.8253 10.6145 89.6449C15.6337 79.4644 23.5172 71.0222 33.2678 65.3859C43.0184 59.7496 54.1982 57.1725 65.3932 57.9804C80.4009 59.0615 94.3706 66.144 104.23 77.6699C114.088 89.1959 119.029 104.221 117.965 119.441V119.441Z" stroke="#ABFAB6" stroke-width="7" />
	<g opacity="0.8">
		<path d="M110.353 98.6854C83.3182 118.825 37.1228 155.319 33.5379 156.669L14.3367 138.302L97.4279 75.955L110.353 98.6854Z" fill="url(#paint6_linear_1157_458)" fill-opacity="0.3" />
		<path d="M102.687 81.2839C75.6518 101.423 22.4139 144.383 18.829 145.732L9.59082 121.271L83.3377 66.1038L102.687 81.2839Z" fill="url(#paint7_linear_1157_458)" fill-opacity="0.3" />
	</g>
	<g clip-path="url(#clip0_1157_458)">
		<path d="M48.4254 103.234V104.11H40.2078C40.26 100.232 40.5389 97.4155 41.2592 95.0255C42.0424 92.4264 43.3726 90.2537 45.6698 87.7559L45.6698 87.7559L45.6756 87.7496C50.5909 82.331 57.5772 81.385 64.2455 82.7402C70.763 84.1157 78.4247 90.4815 78.4361 99.5504C78.4265 107.691 72.6867 111.241 69.3495 113.306C68.9747 113.537 68.6302 113.751 68.3275 113.949C65.2247 115.98 63.8981 118.479 63.9287 121.223V128.266L55.6976 128.304L55.6976 117.179C55.6976 117.178 55.6976 117.178 55.6976 117.178C55.7011 115.48 55.9805 114.156 56.5932 113.022C57.2064 111.887 58.2106 110.835 59.8382 109.78L59.8499 109.772L59.8614 109.764L65.881 105.667L65.882 105.667C68.1559 104.116 69.2826 101.773 69.4905 99.4933C69.6953 97.2469 69.0159 94.9319 67.503 93.4323L67.4969 93.4262L67.4906 93.4202C65.0617 91.0786 61.0888 89.786 56.9001 90.6066L56.9001 90.6066L56.889 90.6088C53.0941 91.3878 50.8738 93.2439 49.6811 95.7004C48.5405 98.0497 48.4172 100.806 48.4254 103.234Z" fill="white" />
		<path d="M48.4254 103.234V104.11H40.2078C40.26 100.232 40.5389 97.4155 41.2592 95.0255C42.0424 92.4264 43.3726 90.2537 45.6698 87.7559L45.6698 87.7559L45.6756 87.7496C50.5909 82.331 57.5772 81.385 64.2455 82.7402C70.763 84.1157 78.4247 90.4815 78.4361 99.5504C78.4265 107.691 72.6867 111.241 69.3495 113.306C68.9747 113.537 68.6302 113.751 68.3275 113.949C65.2247 115.98 63.8981 118.479 63.9287 121.223V128.266L55.6976 128.304L55.6976 117.179C55.6976 117.178 55.6976 117.178 55.6976 117.178C55.7011 115.48 55.9805 114.156 56.5932 113.022C57.2064 111.887 58.2106 110.835 59.8382 109.78L59.8499 109.772L59.8614 109.764L65.881 105.667L65.882 105.667C68.1559 104.116 69.2826 101.773 69.4905 99.4933C69.6953 97.2469 69.0159 94.9319 67.503 93.4323L67.4969 93.4262L67.4906 93.4202C65.0617 91.0786 61.0888 89.786 56.9001 90.6066L56.9001 90.6066L56.889 90.6088C53.0941 91.3878 50.8738 93.2439 49.6811 95.7004C48.5405 98.0497 48.4172 100.806 48.4254 103.234Z" fill="url(#paint8_linear_1157_458)" />
		<path d="M48.4254 103.234V104.11H40.2078C40.26 100.232 40.5389 97.4155 41.2592 95.0255C42.0424 92.4264 43.3726 90.2537 45.6698 87.7559L45.6698 87.7559L45.6756 87.7496C50.5909 82.331 57.5772 81.385 64.2455 82.7402C70.763 84.1157 78.4247 90.4815 78.4361 99.5504C78.4265 107.691 72.6867 111.241 69.3495 113.306C68.9747 113.537 68.6302 113.751 68.3275 113.949C65.2247 115.98 63.8981 118.479 63.9287 121.223V128.266L55.6976 128.304L55.6976 117.179C55.6976 117.178 55.6976 117.178 55.6976 117.178C55.7011 115.48 55.9805 114.156 56.5932 113.022C57.2064 111.887 58.2106 110.835 59.8382 109.78L59.8499 109.772L59.8614 109.764L65.881 105.667L65.882 105.667C68.1559 104.116 69.2826 101.773 69.4905 99.4933C69.6953 97.2469 69.0159 94.9319 67.503 93.4323L67.4969 93.4262L67.4906 93.4202C65.0617 91.0786 61.0888 89.786 56.9001 90.6066L56.9001 90.6066L56.889 90.6088C53.0941 91.3878 50.8738 93.2439 49.6811 95.7004C48.5405 98.0497 48.4172 100.806 48.4254 103.234Z" stroke="#1E231F" stroke-width="2.5" />
		<path d="M64.0483 139.179C64.0483 141.521 62.1498 143.419 59.8075 143.419C57.4652 143.419 55.5667 141.521 55.5667 139.179C55.5667 136.838 57.4652 134.939 59.8075 134.939C62.1498 134.939 64.0483 136.838 64.0483 139.179Z" fill="white" />
		<path d="M64.0483 139.179C64.0483 141.521 62.1498 143.419 59.8075 143.419C57.4652 143.419 55.5667 141.521 55.5667 139.179C55.5667 136.838 57.4652 134.939 59.8075 134.939C62.1498 134.939 64.0483 136.838 64.0483 139.179Z" fill="url(#paint9_linear_1157_458)" />
		<path d="M64.0483 139.179C64.0483 141.521 62.1498 143.419 59.8075 143.419C57.4652 143.419 55.5667 141.521 55.5667 139.179C55.5667 136.838 57.4652 134.939 59.8075 134.939C62.1498 134.939 64.0483 136.838 64.0483 139.179Z" stroke="#1E231F" stroke-width="2.5" />
	</g>
	<path opacity="0.5" d="M236.062 70.5345C236.384 69.6639 237.616 69.6639 237.938 70.5345L241.162 79.2473C241.263 79.521 241.479 79.7368 241.753 79.8381L250.465 83.0621C251.336 83.3843 251.336 84.6157 250.465 84.9379L241.753 88.1619C241.479 88.2632 241.263 88.479 241.162 88.7527L237.938 97.4655C237.616 98.3361 236.384 98.3361 236.062 97.4655L232.838 88.7527C232.737 88.479 232.521 88.2632 232.247 88.1619L223.535 84.9379C222.664 84.6157 222.664 83.3843 223.535 83.0621L232.247 79.8381C232.521 79.7368 232.737 79.521 232.838 79.2473L236.062 70.5345Z" fill="url(#paint10_linear_1157_458)" />
	<path opacity="0.7" d="M82.0676 23.4052C82.3977 22.5538 83.6023 22.5538 83.9324 23.4052L85.8049 28.2356C85.9103 28.5076 86.1292 28.7199 86.4043 28.8171L91.3305 30.5571C92.2198 30.8712 92.2198 32.1288 91.3305 32.4429L86.4043 34.1829C86.1292 34.2801 85.9103 34.4924 85.8049 34.7644L83.9324 39.5948C83.6023 40.4462 82.3977 40.4462 82.0676 39.5948L80.1951 34.7644C80.0897 34.4924 79.8708 34.2801 79.5957 34.1829L74.6695 32.4429C73.7802 32.1288 73.7802 30.8712 74.6695 30.5571L79.5957 28.8171C79.8708 28.7199 80.0897 28.5076 80.1951 28.2356L82.0676 23.4052Z" fill="url(#paint11_linear_1157_458)" />
	<path opacity="0.7" d="M170.068 2.40522C170.398 1.55381 171.602 1.55381 171.932 2.40522L173.805 7.23562C173.91 7.50757 174.129 7.71994 174.404 7.81708L179.33 9.55709C180.22 9.87119 180.22 11.1288 179.33 11.4429L174.404 13.1829C174.129 13.2801 173.91 13.4924 173.805 13.7644L171.932 18.5948C171.602 19.4462 170.398 19.4462 170.068 18.5948L168.195 13.7644C168.09 13.4924 167.871 13.2801 167.596 13.1829L162.67 11.4429C161.78 11.1288 161.78 9.87119 162.67 9.55709L167.596 7.81708C167.871 7.71994 168.09 7.50757 168.195 7.23562L170.068 2.40522Z" fill="url(#paint12_linear_1157_458)" />
	<g filter="url(#filter0_d_1157_458)">
		<path d="M170.9 94.6142C164.39 104.631 132 155.637 132 178.089C132 194.492 140.75 209.648 154.956 217.85C169.161 226.05 186.661 226.05 200.867 217.85C215.073 209.648 223.823 194.492 223.823 178.089C223.823 156.052 191.435 105.051 184.923 95.0339C183.458 92.6061 180.859 91.0875 178.025 91.0037C175.191 90.9198 172.506 92.28 170.899 94.6166L170.9 94.6142ZM177.911 207.306C170.162 207.306 162.731 204.228 157.253 198.748C151.773 193.27 148.695 185.839 148.695 178.089C148.695 166.904 164.555 137.187 177.911 115.316C191.267 137.188 207.128 166.904 207.128 178.089C207.128 185.839 204.05 193.27 198.57 198.748C193.092 204.228 185.661 207.306 177.911 207.306Z" fill="url(#paint13_linear_1157_458)" />
		<path d="M138.187 181.226L174.793 106.467H183.042L216.039 183.804L195.932 212.161H163.966L138.187 181.226Z" fill="url(#paint14_linear_1157_458)" />
	</g>
	<defs>
		<filter id="filter0_d_1157_458" x="128" y="91" width="99.8227" height="141" filterUnits="userSpaceOnUse" color-interpolation-filters="sRGB">
			<feFlood flood-opacity="0" result="BackgroundImageFix" />
			<feColorMatrix in="SourceAlpha" type="matrix" values="0 0 0 0 0 0 0 0 0 0 0 0 0 0 0 0 0 0 127 0" result="hardAlpha" />
			<feOffset dy="4" />
			<feGaussianBlur stdDeviation="2" />
			<feComposite in2="hardAlpha" operator="out" />
			<feColorMatrix type="matrix" values="0 0 0 0 0 0 0 0 0 0 0 0 0 0 0 0 0 0 0.25 0" />
			<feBlend mode="normal" in2="BackgroundImageFix" result="effect1_dropShadow_1157_458" />
			<feBlend mode="normal" in="SourceGraphic" in2="effect1_dropShadow_1157_458" result="shape" />
		</filter>
		<linearGradient id="paint0_linear_1157_458" x1="103.947" y1="149.134" x2="79.3322" y2="224.795" gradientUnits="userSpaceOnUse">
			<stop stop-color="#234B23" />
			<stop offset="1" stop-color="#246E24" stop-opacity="0.48" />
		</linearGradient>
		<linearGradient id="paint1_linear_1157_458" x1="115.572" y1="167.787" x2="90.9572" y2="243.448" gradientUnits="userSpaceOnUse">
			<stop stop-color="#234B23" />
			<stop offset="1" stop-color="#246E24" stop-opacity="0.48" />
		</linearGradient>
		<linearGradient id="paint2_linear_1157_458" x1="129.541" y1="185.684" x2="109.182" y2="249.794" gradientUnits="userSpaceOnUse">
			<stop stop-color="#234B23" />
			<stop offset="1" stop-color="#246E24" stop-opacity="0.48" />
		</linearGradient>
		<linearGradient id="paint3_linear_1157_458" x1="112.545" y1="184.953" x2="160.778" y2="240.562" gradientUnits="userSpaceOnUse">
			<stop stop-color="#578F57" />
			<stop offset="1" stop-color="#1A301A" />
		</linearGradient>
		<radialGradient id="paint4_radial_1157_458" cx="0" cy="0" r="1" gradientUnits="userSpaceOnUse" gradientTransform="translate(47.0059 98.9376) rotate(7.88431) scale(103.862 105.277)">
			<stop offset="0.69" stop-color="#2E491A" />
			<stop offset="0.92" stop-color="#74BF77" />
		</radialGradient>
		<radialGradient id="paint5_radial_1157_458" cx="0" cy="0" r="1" gradientUnits="userSpaceOnUse" gradientTransform="translate(61.3685 115.376) scale(59.2968 60.1356)">
			<stop stop-color="#BCFF90" />
			<stop offset="0.39" stop-color="#0B5A12" />
		</radialGradient>
		<linearGradient id="paint6_linear_1157_458" x1="84.0991" y1="118.708" x2="62.8829" y2="98.8265" gradientUnits="userSpaceOnUse">
			<stop stop-color="#1C401C" />
			<stop offset="1" stop-color="#162218" />
		</linearGradient>
		<linearGradient id="paint7_linear_1157_458" x1="73.3486" y1="105.544" x2="52.1324" y2="85.6626" gradientUnits="userSpaceOnUse">
			<stop stop-color="#1C401C" />
			<stop offset="1" stop-color="#162218" />
		</linearGradient>
		<linearGradient id="paint8_linear_1157_458" x1="106.53" y1="141.936" x2="22.7308" y2="87.3182" gradientUnits="userSpaceOnUse">
			<stop stop-color="#18551F" stop-opacity="0.43" />
			<stop offset="0.678397" stop-color="#63B56D" />
			<stop offset="0.855169" stop-color="#D5F0C3" stop-opacity="0.73" />
		</linearGradient>
		<linearGradient id="paint9_linear_1157_458" x1="72.5346" y1="147.464" x2="52.4844" y2="131.865" gradientUnits="userSpaceOnUse">
			<stop stop-color="#18551F" stop-opacity="0.43" />
			<stop offset="0.678397" stop-color="#63B56D" />
			<stop offset="0.855169" stop-color="#D5F0C3" stop-opacity="0.73" />
		</linearGradient>
		<linearGradient id="paint10_linear_1157_458" x1="274.086" y1="108.146" x2="215.655" y2="62.6926" gradientUnits="userSpaceOnUse">
			<stop stop-color="#27781C" />
			<stop offset="0.455329" stop-color="#9AEAA2" />
			<stop offset="0.855169" stop-color="#22721F" />
		</linearGradient>
		<linearGradient id="paint11_linear_1157_458" x1="108.497" y1="47.3457" x2="69.7496" y2="15.7693" gradientUnits="userSpaceOnUse">
			<stop stop-color="#18551F" stop-opacity="0.43" />
			<stop offset="0.678397" stop-color="#63B56D" />
			<stop offset="0.855169" stop-color="#D5F0C3" stop-opacity="0.73" />
		</linearGradient>
		<linearGradient id="paint12_linear_1157_458" x1="196.497" y1="26.3457" x2="157.75" y2="-5.2307" gradientUnits="userSpaceOnUse">
			<stop stop-color="#18551F" stop-opacity="0.43" />
			<stop offset="0.678397" stop-color="#63B56D" />
			<stop offset="0.855169" stop-color="#D5F0C3" stop-opacity="0.73" />
		</linearGradient>
		<linearGradient id="paint13_linear_1157_458" x1="177.911" y1="91" x2="177.911" y2="224" gradientUnits="userSpaceOnUse">
			<stop stop-color="#ABFAB6" />
			<stop offset="1" stop-color="#45D259" />
		</linearGradient>
		<linearGradient id="paint14_linear_1157_458" x1="177.911" y1="91" x2="177.911" y2="224" gradientUnits="userSpaceOnUse">
			<stop stop-color="#ABFAB6" />
			<stop offset="1" stop-color="#45D259" />
		</linearGradient>
		<clipPath id="clip0_1157_458">
			<rect width="40.8894" height="64.4231" fill="white" transform="translate(38.7985 80.5435)" />
		</clipPath>
	</defs>
</svg>
	