<svg width="48" height="48" viewBox="0 0 48 48" fill="none" xmlns="http://www.w3.org/2000/svg">
<path d="M43.7578 6.35352H4.24219C3.76977 6.35352 3.3167 6.54118 2.98265 6.87523C2.6486 7.20928 2.46094 7.66235 2.46094 8.13477V39.8654C2.46094 40.3378 2.6486 40.7909 2.98265 41.1249C3.3167 41.459 3.76977 41.6466 4.24219 41.6466H43.7578C44.2302 41.6466 44.6833 41.459 45.0173 41.1249C45.3514 40.7909 45.5391 40.3378 45.5391 39.8654V8.13477C45.5391 7.66235 45.3514 7.20928 45.0173 6.87523C44.6833 6.54118 44.2302 6.35352 43.7578 6.35352ZM6.02344 38.0841V9.91602H41.9766V14.0832H27.12C26.6476 14.0832 26.1945 14.2709 25.8605 14.6049C25.5264 14.939 25.3387 15.392 25.3387 15.8645V32.1357C25.3387 32.6081 25.5264 33.0612 25.8605 33.3952C26.1945 33.7293 26.6476 33.917 27.12 33.917H41.9766V38.0841H6.02344ZM41.9766 30.2607H28.995V17.7395H41.9766V30.2607Z" fill="#ffffff"/>
<path d="M33.4521 25.7812H36.1615C36.6339 25.7812 37.087 25.5936 37.4211 25.2595C37.7551 24.9255 37.9428 24.4724 37.9428 24C37.9428 23.5276 37.7551 23.0745 37.4211 22.7405C37.087 22.4064 36.6339 22.2188 36.1615 22.2188H33.4521C32.9797 22.2188 32.5267 22.4064 32.1926 22.7405C31.8586 23.0745 31.6709 23.5276 31.6709 24C31.6709 24.4724 31.8586 24.9255 32.1926 25.2595C32.5267 25.5936 32.9797 25.7812 33.4521 25.7812Z" fill="#ffffff"/>
</svg>
