<svg width="2130" height="552" viewBox="0 0 2130 552" fill="none" xmlns="http://www.w3.org/2000/svg">
<path d="M1374.86 433C1366.13 433 1359.52 430.608 1355.02 425.823C1350.51 421.039 1348.26 414.706 1348.26 406.826V120.599H1372.32V411.892H1405.68V433H1374.86ZM1536.83 438.066C1522.48 438.066 1509.39 435.533 1497.57 430.467C1486.03 425.401 1476.04 418.084 1467.6 408.515C1459.43 398.664 1453.1 386.703 1448.6 372.631C1444.38 358.558 1442.27 342.657 1442.27 324.926C1442.27 307.195 1444.38 291.434 1448.6 277.644C1453.1 263.572 1459.43 251.751 1467.6 242.182C1476.04 232.331 1486.03 224.873 1497.57 219.807C1509.11 214.46 1522.05 211.786 1536.41 211.786C1550.2 211.786 1562.72 214.46 1573.98 219.807C1585.24 224.873 1594.81 232.05 1602.69 241.338C1610.57 250.625 1616.62 261.883 1620.84 275.111C1625.34 288.057 1627.6 302.411 1627.6 318.171V329.57H1467.6V340.124C1467.6 351.382 1469.14 361.795 1472.24 371.364C1475.62 380.652 1480.26 388.673 1486.17 395.427C1492.36 402.182 1499.82 407.529 1508.54 411.47C1517.27 415.128 1527.12 416.958 1538.1 416.958C1569.62 416.958 1591.43 402.463 1603.53 373.475L1621.26 385.295C1614.51 401.338 1603.81 414.143 1589.18 423.712C1574.82 433.281 1557.38 438.066 1536.83 438.066ZM1536.41 232.05C1525.99 232.05 1516.57 234.02 1508.12 237.96C1499.68 241.619 1492.36 246.826 1486.17 253.58C1480.26 260.335 1475.62 268.497 1472.24 278.066C1469.14 287.353 1467.6 297.626 1467.6 308.884V310.995H1601.42V307.617C1601.42 296.36 1599.87 286.087 1596.78 276.799C1593.68 267.23 1589.18 259.209 1583.27 252.736C1577.64 246.263 1570.74 241.197 1562.58 237.538C1554.7 233.879 1545.98 232.05 1536.41 232.05ZM1688.8 433V216.852H1712.86V251.047H1714.13C1718.91 239.79 1726.37 230.502 1736.5 223.185C1746.63 215.586 1760.42 211.786 1777.87 211.786C1800.95 211.786 1818.82 218.963 1831.49 233.317C1844.43 247.389 1850.91 267.653 1850.91 294.108V433H1826.84V298.33C1826.84 276.377 1822.06 260.054 1812.49 249.359C1803.2 238.664 1789.55 233.317 1771.54 233.317C1763.94 233.317 1756.62 234.302 1749.59 236.272C1742.55 238.242 1736.22 241.197 1730.59 245.137C1725.24 249.077 1720.88 254.143 1717.5 260.335C1714.41 266.245 1712.86 273.141 1712.86 281.021V433H1688.8ZM2066.41 398.383H2065.14C2059.52 410.485 2051.21 420.194 2040.24 427.512C2029.54 434.548 2015.89 438.066 1999.29 438.066C1971.42 438.066 1949.61 428.215 1933.85 408.515C1918.09 388.814 1910.21 360.951 1910.21 324.926C1910.21 288.901 1918.09 261.039 1933.85 241.338C1949.61 221.637 1971.42 211.786 1999.29 211.786C2015.89 211.786 2029.68 215.445 2040.66 222.762C2051.64 229.799 2059.8 239.368 2065.14 251.47H2066.41V120.599H2090.47V433H2066.41V398.383ZM2004.78 416.536C2013.22 416.536 2021.1 415.41 2028.42 413.158C2036.02 410.907 2042.63 407.67 2048.26 403.449C2053.89 398.945 2058.25 393.739 2061.35 387.828C2064.72 381.637 2066.41 374.741 2066.41 367.142V281.443C2066.41 274.407 2064.72 267.934 2061.35 262.024C2058.25 256.113 2053.89 251.047 2048.26 246.826C2042.63 242.604 2036.02 239.368 2028.42 237.116C2021.1 234.583 2013.22 233.317 2004.78 233.317C1983.1 233.317 1966.22 240.212 1954.12 254.003C1942.01 267.793 1935.96 286.368 1935.96 309.728V340.124C1935.96 363.484 1942.01 382.059 1954.12 395.85C1966.22 409.64 1983.1 416.536 2004.78 416.536Z" fill="white"/>
<path d="M698.261 209.29C760.234 173.014 827.991 190.669 865.89 233.091C905.707 277.389 911.169 343.191 878.733 392.964C859.475 422.127 833.131 441.028 799.099 449.428C765.066 457.829 731.971 451.864 701.468 435.428V516.155C701.468 535.756 689.269 550.499 671.286 551.787C652.659 553.383 636.918 539.578 635.965 520.327C635.643 516.463 635.965 512.613 635.965 508.763V228.554C635.788 223.453 636.436 218.357 637.884 213.462C642.38 201.575 650.727 194.197 663.261 192.265C675.138 190.025 685.418 194.197 693.765 203.185C695.416 205.104 696.918 207.144 698.261 209.29V209.29ZM701.79 321C699.871 351.186 725.235 388.105 768.581 388.105C805.191 388.427 835.064 358.242 835.386 321.322C835.386 284.081 805.835 253.91 768.581 254.232C726.523 254.554 700.179 290.185 701.79 321V321Z" fill="white"/>
<path d="M505.252 207.036C507.507 205.44 507.507 203.508 508.137 201.898C514.888 187.772 529.019 180.393 544.117 183.277C551.27 184.598 557.766 188.3 562.547 193.78C567.328 199.261 570.112 206.198 570.447 213.463V408.967C570.671 414.096 569.906 419.22 568.192 424.06C563.052 436.899 553.431 444.277 539.621 445.243C526.134 445.887 515.812 439.783 509.104 428.232C508.017 426.259 507.054 424.22 506.219 422.128C503.964 421.484 502.689 423.416 501.401 424.382C425.926 477.99 322.133 440.105 297.806 348.933C279.179 279.588 318.996 206.714 386.432 186.218C425.926 174.009 463.461 180.113 498.194 202.906C500.75 203.901 503.133 205.295 505.252 207.036V207.036ZM359.135 314.267C359.091 320.439 359.849 326.59 361.39 332.566C373.267 379.118 427.859 399.013 465.113 370.13C498.516 344.439 501.723 294.68 472.116 264.831C456.71 249.43 437.761 242.346 415.927 245.888C382.58 251.656 359.457 279.91 359.135 314.267Z" fill="white"/>
<path d="M1053.8 260.729C1053.99 260.955 1054.23 261.138 1054.5 261.263C1054.76 261.388 1055.06 261.453 1055.35 261.453C1055.65 261.453 1055.94 261.388 1056.21 261.263C1056.48 261.138 1056.72 260.955 1056.91 260.729C1065.06 250.788 1073.2 241.128 1081.05 231.789C1091.01 219.903 1100.66 207.988 1110.6 196.158C1119.6 185.881 1130.83 181.387 1144.31 184.957C1149.24 186.231 1153.79 188.646 1157.6 192.008C1161.41 195.37 1164.37 199.582 1166.25 204.304C1168.13 209.027 1168.87 214.125 1168.4 219.185C1167.94 224.245 1166.29 229.125 1163.59 233.427C1161.19 237.038 1158.51 240.447 1155.56 243.62C1137.58 265.447 1119.6 287.022 1101.29 308.793C1095.59 315.919 1097.4 313.553 1103.2 321.393L1159.22 388.274C1176.54 406.909 1169.02 435.05 1145.66 442.625C1132.82 446.825 1119.33 442.625 1110.34 431.704C1094.27 412.439 1078.55 393.497 1062.48 374.302C1060.89 372.37 1059.6 370.76 1057.99 368.841C1054.78 364.991 1054.46 364.991 1051.25 369.163C1036.8 386.174 1022.66 403.507 1008.21 420.518C1005 424.382 1002.11 428.232 998.898 431.718C986.699 445.845 966.784 448.085 952.681 436.534C938.227 424.662 936.631 404.431 948.479 389.66C968.395 365.593 988.296 341.834 1008.21 318.075C1012.06 313.259 1012.06 313.259 1008.21 308.765C988.94 285.65 969.683 262.563 950.412 239.742C942.611 230.473 938.409 220.519 941.687 208.618C942.992 203.019 945.758 197.865 949.703 193.682C953.649 189.498 958.633 186.435 964.147 184.803C969.662 183.171 975.511 183.029 981.099 184.392C986.686 185.754 991.813 188.573 995.957 192.56C997.876 194.492 999.808 196.76 1001.73 198.986C1016.66 217.019 1046.63 252.3 1053.8 260.729Z" fill="#8DBC1A"/>
<path d="M140.765 175.577C175.779 175.577 205.96 187.463 232.29 209.934C247.065 222.773 248.984 243.312 236.491 257.116C231.345 262.956 224.271 266.753 216.559 267.814C208.846 268.876 201.009 267.131 194.476 262.899C191.591 260.966 189.336 258.698 186.451 256.794C152.712 229.507 100.304 237.851 76.5371 273.819C50.2072 313.623 72.0414 368.519 119.575 380.714C144.617 387.14 167.417 382.646 187.655 366.265C197.921 357.599 209.489 354.715 222.01 359.531C226.861 361.332 231.211 364.265 234.698 368.087C238.186 371.908 240.71 376.507 242.061 381.5C243.412 386.493 243.55 391.737 242.465 396.795C241.379 401.852 239.101 406.577 235.819 410.577C233.175 413.411 230.37 416.09 227.416 418.599C196.604 442.401 161.591 452.943 122.727 447.819C72.3075 440.818 34.7314 414.427 12.8971 368.519C-19.217 300.784 9.04567 213.112 93.1754 183.599C108.413 178.032 124.544 175.312 140.765 175.577V175.577Z" fill="white"/>
<path d="M1211.12 157.853H1200.2V151H1229.89V157.853H1218.98V187.407H1211.08V157.853H1211.12Z" fill="white"/>
<path d="M1264.94 187.442L1264.91 165.584L1254.88 183.576H1251.33L1241.33 166.041V187.442H1233.94V151H1240.45L1253.2 173.631L1265.76 151H1272.24L1272.34 187.442H1264.94Z" fill="white"/>
</svg>
